<svg xmlns="http://www.w3.org/2000/svg" width="500" height="750" viewBox="0 0 500 750">
  <defs>
    <linearGradient id="bg" x1="0%" y1="0%" x2="0%" y2="100%">
      <stop offset="0%" stop-color="#1a1a2e"/>
      <stop offset="100%" stop-color="#16213e"/>
    </linearGradient>
  </defs>

  <!-- Background -->
  <rect width="500" height="750" fill="url(#bg)"/>

  <!-- Film strip left -->
  <rect x="20" y="0" width="40" height="750" fill="#0f0f1a" rx="2"/>
  <rect x="26" y="15" width="28" height="18" rx="3" fill="#1a1a2e" stroke="#333" stroke-width="1"/>
  <rect x="26" y="45" width="28" height="18" rx="3" fill="#1a1a2e" stroke="#333" stroke-width="1"/>
  <rect x="26" y="75" width="28" height="18" rx="3" fill="#1a1a2e" stroke="#333" stroke-width="1"/>
  <rect x="26" y="105" width="28" height="18" rx="3" fill="#1a1a2e" stroke="#333" stroke-width="1"/>
  <rect x="26" y="687" width="28" height="18" rx="3" fill="#1a1a2e" stroke="#333" stroke-width="1"/>
  <rect x="26" y="717" width="28" height="18" rx="3" fill="#1a1a2e" stroke="#333" stroke-width="1"/>

  <!-- Film strip right -->
  <rect x="440" y="0" width="40" height="750" fill="#0f0f1a" rx="2"/>
  <rect x="446" y="15" width="28" height="18" rx="3" fill="#1a1a2e" stroke="#333" stroke-width="1"/>
  <rect x="446" y="45" width="28" height="18" rx="3" fill="#1a1a2e" stroke="#333" stroke-width="1"/>
  <rect x="446" y="75" width="28" height="18" rx="3" fill="#1a1a2e" stroke="#333" stroke-width="1"/>
  <rect x="446" y="105" width="28" height="18" rx="3" fill="#1a1a2e" stroke="#333" stroke-width="1"/>
  <rect x="446" y="687" width="28" height="18" rx="3" fill="#1a1a2e" stroke="#333" stroke-width="1"/>
  <rect x="446" y="717" width="28" height="18" rx="3" fill="#1a1a2e" stroke="#333" stroke-width="1"/>

  <!-- Center film icon -->
  <!-- <g transform="translate(250, 340)">
    <rect x="-60" y="-10" width="120" height="80" rx="6" fill="#2a2a4a" stroke="#444" stroke-width="1.5"/>

    <polygon points="-60,-10 -60,-35 60,-35 60,-10" fill="#3a3a5a" stroke="#444" stroke-width="1.5"/>

    <polygon points="-50,-35 -35,-35 -20,-10 -35,-10" fill="#1a1a2e"/>
    <polygon points="-15,-35 0,-35 15,-10 0,-10" fill="#1a1a2e"/>
    <polygon points="20,-35 35,-35 50,-10 35,-10" fill="#1a1a2e"/>

    <polygon points="-12,18 -12,48 18,33" fill="#e0e0e0" opacity="0.6"/>
  </g> -->

  <!-- "No Image" text -->
  <text x="250" y="400" text-anchor="middle" font-family="system-ui, -apple-system, sans-serif" font-size="20" font-weight="500" fill="#555" letter-spacing="2">
    NO IMAGE
  </text>
</svg>
